# xmcd
#
# Track frame offsets:
#	150
#	12670
#	36130
#	50205
#	63080
#	76475
#	91745
#	105700
#	115880
#	130020
#	144600
#	157840
#	172190
#	187457
#
# Disc length: 2626
#
# Revision: 4
# Processed by: cddbd v1.5.1PL0 Copyright (c) Steve Scherf et al.
# Submitted via: FreeRIP 1.21
# Normalized: r3:DSETVAR1
#
DISCID=c30a400e
DTITLE=Various Artist - Blues - Audio News Collection - Série Ritm
DYEAR=1900
DGENRE=blues
TTITLE0=Muddy Waters - I'm Your Hoochie-coochie MAn
TTITLE1=Howlin'Wolf - Little Red Rooster
TTITLE2=Big Bill Broonzy - Horse Shoe Over May Door
TTITLE3=Sonny Boy Williamson - Keep It To Yourself
TTITLE4=John Lee Hooker - One Bourbon, One Scotch, One Beer
TTITLE5=Bessie Smith - Send Me To The 'Lectric Chair
TTITLE6=Bo Diddley - Before You Accuse Me
TTITLE7=B.B. King - Don't Keep Me Waiting
TTITLE8=Otis Spann - This Is The Blues
TTITLE9=Buddy Guy - I Cry And Sing The Blues
TTITLE10=Muddy Waters - Mannish Boy
TTITLE11=Lowell Fulson - Reconsider Baby
TTITLE12=Memphis Slim - Worried Life Blues
TTITLE13=Willie Dixon - 29 Ways
EXTD=
EXTT0=Muddy Waters\nDixon\n
EXTT1=Howlin' Wolf\nDixon\n
EXTT2=Big Bill Broonzy\nBrown\n
EXTT3=Sonny Boy Williamson\nMiller\n
EXTT4=John Lee Hooker\nHooker\n
EXTT5=Bessie Smith\nBrooks\n
EXTT6=Bo Diddley\nMcDaniel\n
EXTT7=B. B. King\nDixon\n
EXTT8=Otis Spann\nSpann\n
EXTT9=Buddy Guy\nDixon\n
EXTT10=Muddy Waters\nDixon\n
EXTT11=Lowell Fulson\nFulson\n
EXTT12=Memphis Slim\nMorr-Weather\n
EXTT13=Willie Dixon\nDixon\n
PLAYORDER=
